<svg xmlns="http://www.w3.org/2000/svg" width="24" height="24" viewBox="0 0 24 24" fill="none" stroke="currentColor" stroke-width="2" stroke-linecap="round" stroke-linejoin="round"><path d="M4.2 21a1 1 0 0 0 1.4 0l1.1-1.1a1 1 0 0 0 0-1.4L3.3 16.1a1 1 0 0 0-1.4 0L1 17.2a1 1 0 0 0 0 1.4L4.2 21z"></path><path d="M9.8 8.2a1 1 0 0 0 0 1.4l1.1 1.1a1 1 0 0 0 1.4 0l3.7-3.7a1 1 0 0 0 0-1.4L14.9 4.5a1 1 0 0 0-1.4 0L9.8 8.2z"></path><path d="M21 2l-5 5"></path><path d="M6.5 6.5L11 11"></path><path d="M16 16l5 5"></path><path d="M21 21l-5-5"></path></svg>